<?xml version="1.0" encoding="utf-8"?>
<!-- Generator: Adobe Illustrator 27.2.0, SVG Export Plug-In . SVG Version: 6.00 Build 0)  -->
<svg version="1.1" id="Layer_1" xmlns="http://www.w3.org/2000/svg" xmlns:xlink="http://www.w3.org/1999/xlink" x="0px" y="0px"
	 viewBox="0 0 205 146" style="enable-background:new 0 0 205 146;" xml:space="preserve">
<style type="text/css">
	.st0{fill:#F2F2F2;}
</style>
<g id="Background">
</g>
<g id="Icon">
	<path class="st0" d="M7.5,135.5h140.2c2.8,6.2,9.1,10.5,16.3,10.5s13.5-4.3,16.3-10.5h17.2c4.1,0,7.5-3.4,7.5-7.5s-3.4-7.5-7.5-7.5
		h-17.2c-2.8-6.2-9.1-10.5-16.3-10.5s-13.5,4.3-16.3,10.5H7.5c-4.1,0-7.5,3.4-7.5,7.5C0,132.1,3.4,135.5,7.5,135.5z M164,119
		c5,0,9,4,9,9s-4,9-9,9s-9-4-9-9S159,119,164,119z"/>
	<path class="st0" d="M197.5,10.5H57.3C54.5,4.3,48.3,0,41,0S27.5,4.3,24.7,10.5H7.5C3.4,10.5,0,13.9,0,18s3.4,7.5,7.5,7.5h17.2
		C27.5,31.7,33.7,36,41,36s13.5-4.3,16.3-10.5h140.2c4.1,0,7.5-3.4,7.5-7.5S201.6,10.5,197.5,10.5z M41,27c-5,0-9-4-9-9s4-9,9-9
		s9,4,9,9S46,27,41,27z"/>
	<path class="st0" d="M197.5,65.5h-78.7c-2.8-6.2-9-10.5-16.3-10.5S89,59.3,86.1,65.5H7.4c-4,0-7.4,3.4-7.4,7.5s3.4,7.5,7.5,7.5
		h78.7l0,0c2.8,6.2,9,10.5,16.3,10.5s13.5-4.3,16.4-10.5l0,0h78.7c4.1,0,7.5-3.4,7.5-7.5l0,0C205,68.9,201.6,65.5,197.5,65.5z
		 M102.5,82c-5,0-9-4-9-9s4-9,9-9s9,4,9,9S107.5,82,102.5,82z"/>
</g>
</svg>
